<svg width="316" height="51" viewBox="0 0 316 51" fill="none" xmlns="http://www.w3.org/2000/svg">
<g clip-path="url(#clip0_28_3)">
<path d="M7.10908 51C11.0353 51 14.2182 47.7988 14.2182 43.85C14.2182 39.9011 11.0353 36.7 7.10908 36.7C3.18284 36.7 0 39.9011 0 43.85C0 47.7988 3.18284 51 7.10908 51Z" fill="#FFE300"/>
<path d="M45.2909 50.6042C49.2171 50.6042 52.4 47.4031 52.4 43.4542C52.4 39.5054 49.2171 36.3042 45.2909 36.3042C41.3646 36.3042 38.1818 39.5054 38.1818 43.4542C38.1818 47.4031 41.3646 50.6042 45.2909 50.6042Z" fill="#FFE300"/>
<path d="M61.9487 33.5076C65.8749 33.5076 69.0578 30.3064 69.0578 26.3575C69.0578 22.4087 65.8749 19.2075 61.9487 19.2075C58.0225 19.2075 54.8396 22.4087 54.8396 26.3575C54.8396 30.3064 58.0225 33.5076 61.9487 33.5076Z" fill="#FFE300"/>
<path d="M45.2909 16.147C49.2171 16.147 52.4 12.9458 52.4 8.99695C52.4 5.0481 49.2171 1.84692 45.2909 1.84692C41.3646 1.84692 38.1818 5.0481 38.1818 8.99695C38.1818 12.9458 41.3646 16.147 45.2909 16.147Z" fill="#FFE300"/>
<path d="M83.4989 50.6042C87.4251 50.6042 90.608 47.4031 90.608 43.4542C90.608 39.5054 87.4251 36.3042 83.4989 36.3042C79.5727 36.3042 76.3898 39.5054 76.3898 43.4542C76.3898 47.4031 79.5727 50.6042 83.4989 50.6042Z" fill="#FFE300"/>
<path d="M102.531 50.4063C106.457 50.4063 109.64 47.2051 109.64 43.2562C109.64 39.3074 106.457 36.1062 102.531 36.1062C98.6045 36.1062 95.4217 39.3074 95.4217 43.2562C95.4217 47.2051 98.6045 50.4063 102.531 50.4063Z" fill="#FFE300"/>
<path d="M83.4989 33.7053C87.4251 33.7053 90.608 30.5041 90.608 26.5553C90.608 22.6064 87.4251 19.4053 83.4989 19.4053C79.5727 19.4053 76.3898 22.6064 76.3898 26.5553C76.3898 30.5041 79.5727 33.7053 83.4989 33.7053Z" fill="#FFE300"/>
<path d="M83.4989 16.147C87.4251 16.147 90.608 12.9458 90.608 8.99695C90.608 5.0481 87.4251 1.84692 83.4989 1.84692C79.5727 1.84692 76.3898 5.0481 76.3898 8.99695C76.3898 12.9458 79.5727 16.147 83.4989 16.147Z" fill="#FFE300"/>
<path d="M120.107 33.1646C124.033 33.1646 127.216 29.9634 127.216 26.0145C127.216 22.0657 124.033 18.8645 120.107 18.8645C116.181 18.8645 112.998 22.0657 112.998 26.0145C112.998 29.9634 116.181 33.1646 120.107 33.1646Z" fill="#FFE300"/>
<path d="M139.152 32.9666C143.078 32.9666 146.261 29.7654 146.261 25.8165C146.261 21.8677 143.078 18.6665 139.152 18.6665C135.226 18.6665 132.043 21.8677 132.043 25.8165C132.043 29.7654 135.226 32.9666 139.152 32.9666Z" fill="#FFE300"/>
<path d="M120.107 15.606C124.033 15.606 127.216 12.4048 127.216 8.45593C127.216 4.50708 124.033 1.30591 120.107 1.30591C116.181 1.30591 112.998 4.50708 112.998 8.45593C112.998 12.4048 116.181 15.606 120.107 15.606Z" fill="#FFE300"/>
<path d="M139.152 15.4082C143.078 15.4082 146.261 12.207 146.261 8.25818C146.261 4.30933 143.078 1.10815 139.152 1.10815C135.226 1.10815 132.043 4.30933 132.043 8.25818C132.043 12.207 135.226 15.4082 139.152 15.4082Z" fill="#FFE300"/>
<path d="M177.36 49.8787C181.286 49.8787 184.469 46.6775 184.469 42.7286C184.469 38.7798 181.286 35.5786 177.36 35.5786C173.434 35.5786 170.251 38.7798 170.251 42.7286C170.251 46.6775 173.434 49.8787 177.36 49.8787Z" fill="#FFE300"/>
<path d="M177.36 32.9666C181.286 32.9666 184.469 29.7654 184.469 25.8165C184.469 21.8677 181.286 18.6665 177.36 18.6665C173.434 18.6665 170.251 21.8677 170.251 25.8165C170.251 29.7654 173.434 32.9666 177.36 32.9666Z" fill="#FFE300"/>
<path d="M177.36 15.4082C181.286 15.4082 184.469 12.207 184.469 8.25818C184.469 4.30933 181.286 1.10815 177.36 1.10815C173.434 1.10815 170.251 4.30933 170.251 8.25818C170.251 12.207 173.434 15.4082 177.36 15.4082Z" fill="#FFE300"/>
<path d="M215.187 49.1399C219.114 49.1399 222.297 45.9387 222.297 41.9899C222.297 38.041 219.114 34.8398 215.187 34.8398C211.261 34.8398 208.078 38.041 208.078 41.9899C208.078 45.9387 211.261 49.1399 215.187 49.1399Z" fill="#FFE300"/>
<path d="M196.142 32.439C200.069 32.439 203.252 29.2378 203.252 25.2889C203.252 21.3401 200.069 18.1389 196.142 18.1389C192.216 18.1389 189.033 21.3401 189.033 25.2889C189.033 29.2378 192.216 32.439 196.142 32.439Z" fill="#FFE300"/>
<path d="M215.187 14.6826C219.114 14.6826 222.297 11.4814 222.297 7.53259C222.297 3.58374 219.114 0.382568 215.187 0.382568C211.261 0.382568 208.078 3.58374 208.078 7.53259C208.078 11.4814 211.261 14.6826 215.187 14.6826Z" fill="#FFE300"/>
<path d="M253.395 49.1399C257.322 49.1399 260.505 45.9387 260.505 41.9899C260.505 38.041 257.322 34.8398 253.395 34.8398C249.469 34.8398 246.286 38.041 246.286 41.9899C246.286 45.9387 249.469 49.1399 253.395 49.1399Z" fill="#FFE300"/>
<path d="M234.35 32.439C238.277 32.439 241.46 29.2378 241.46 25.2889C241.46 21.3401 238.277 18.1389 234.35 18.1389C230.424 18.1389 227.241 21.3401 227.241 25.2889C227.241 29.2378 230.424 32.439 234.35 32.439Z" fill="#FFE300"/>
<path d="M253.395 14.6826C257.322 14.6826 260.505 11.4814 260.505 7.53259C260.505 3.58374 257.322 0.382568 253.395 0.382568C249.469 0.382568 246.286 3.58374 246.286 7.53259C246.286 11.4814 249.469 14.6826 253.395 14.6826Z" fill="#FFE300"/>
<path d="M270.683 31.8584C274.609 31.8584 277.792 28.6572 277.792 24.7084C277.792 20.7595 274.609 17.5583 270.683 17.5583C266.757 17.5583 263.574 20.7595 263.574 24.7084C263.574 28.6572 266.757 31.8584 270.683 31.8584Z" fill="#FFE300"/>
<path d="M308.891 48.7573C312.817 48.7573 316 45.5562 316 41.6073C316 37.6585 312.817 34.4573 308.891 34.4573C304.965 34.4573 301.782 37.6585 301.782 41.6073C301.782 45.5562 304.965 48.7573 308.891 48.7573Z" fill="#FFE300"/>
<path d="M308.891 14.3001C312.817 14.3001 316 11.0989 316 7.15003C316 3.20118 312.817 0 308.891 0C304.965 0 301.782 3.20118 301.782 7.15003C301.782 11.0989 304.965 14.3001 308.891 14.3001Z" fill="#FFE300"/>
</g>
<defs>
<clipPath id="clip0_28_3">
<rect width="316" height="51" fill="white"/>
</clipPath>
</defs>
</svg>
