<svg width="536" height="1044" viewBox="0 0 536 1044" fill="none" xmlns="http://www.w3.org/2000/svg">
<g clip-path="url(#clip0_54_3)">
<path d="M536 616.667C536 660.826 529.285 703.446 516.906 743.514C512.173 744.526 507.238 745.053 502.222 745.053C463.671 745.053 432.36 713.696 432.36 675.087C432.36 636.478 463.671 605.12 502.222 605.12C514.479 605.12 525.968 608.281 535.96 613.831C535.96 614.763 535.96 615.694 535.96 616.626L536 616.667Z" fill="#FFE300"/>
<path d="M534.139 576.518C524.552 581.461 513.63 584.297 502.141 584.297C475.24 584.297 451.859 569.023 440.208 546.66C464.682 527.943 491.3 511.819 519.617 498.773C526.777 523.81 531.672 549.779 534.18 576.478L534.139 576.518Z" fill="#FFE300"/>
<path d="M519.576 498.814C491.3 511.859 464.682 527.943 440.168 546.7C435.071 537.018 432.239 525.998 432.239 514.33C432.239 476.41 462.376 445.539 499.957 444.405C507.683 461.947 514.237 480.097 519.576 498.814Z" fill="#FFE300"/>
<path d="M509.423 765.512C494.334 806.269 473.258 844.067 447.166 877.855C438.064 866.026 432.644 851.238 432.644 835.114C432.644 796.505 463.954 765.148 502.505 765.148C504.811 765.148 507.157 765.269 509.423 765.472V765.512Z" fill="#FFE300"/>
<path d="M431.956 354.344C431.956 349.037 432.563 343.851 433.655 338.868C455.58 364.553 474.512 392.872 489.924 423.297C456.996 417.666 431.956 388.942 431.956 354.344V354.344Z" fill="#FFE300"/>
<path d="M415.775 835.114C415.775 873.764 384.505 905.08 345.913 905.08C309.384 905.08 279.409 877.005 276.335 841.231C276.335 841.231 276.335 841.191 276.335 841.15C276.335 841.15 276.335 841.137 276.335 841.11C277.306 830.941 278.64 820.894 280.339 810.928C290.169 784.189 315.816 765.107 345.913 765.107C384.505 765.107 415.775 796.464 415.775 835.074V835.114Z" fill="#FFE300"/>
<path d="M415.492 675.087C415.492 713.736 384.222 745.053 345.63 745.053C329.328 745.053 314.401 739.462 302.508 730.144C319.417 686.349 343.405 646.039 373.097 610.752C398.016 621.447 415.451 646.201 415.451 675.087H415.492Z" fill="#FFE300"/>
<path d="M373.138 610.752C343.446 646.079 319.457 686.349 302.548 730.144C286.246 717.342 275.768 697.41 275.768 675.087C275.768 636.437 307.079 605.12 345.63 605.12C355.379 605.12 364.683 607.106 373.097 610.752H373.138Z" fill="#FFE300"/>
<path d="M415.411 514.33C415.411 552.98 384.141 584.297 345.549 584.297C306.957 584.297 275.687 552.94 275.687 514.33C275.687 475.721 306.957 444.364 345.549 444.364C384.141 444.364 415.411 475.681 415.411 514.33V514.33Z" fill="#FFE300"/>
<path d="M275.404 354.344C275.404 315.694 306.674 284.377 345.266 284.377C383.858 284.377 415.128 315.694 415.128 354.344C415.128 392.993 383.858 424.31 345.266 424.31C306.674 424.31 275.404 392.993 275.404 354.344V354.344Z" fill="#FFE300"/>
<path d="M387.741 940.691C358.939 965.607 326.739 986.714 291.99 1003.24C288.835 992.67 286.084 981.974 283.738 971.036C294.336 945.958 319.134 928.335 348.057 928.335C362.782 928.335 376.455 932.872 387.741 940.691V940.691Z" fill="#FFE300"/>
<path d="M291.99 1003.24C287.702 1005.31 283.414 1007.25 279.085 1009.16C278.519 1005.63 278.276 1001.99 278.276 998.301C278.276 988.618 280.218 979.422 283.778 971.036C286.124 981.934 288.875 992.67 292.03 1003.24H291.99Z" fill="#FFE300"/>
<path d="M260.032 835.114C260.032 873.764 228.762 905.08 190.171 905.08C151.579 905.08 120.309 873.764 120.309 835.114C120.309 796.464 151.579 765.148 190.171 765.148C228.762 765.148 260.032 796.464 260.032 835.114Z" fill="#FFE300"/>
<path d="M259.749 675.087C259.749 713.736 228.479 745.053 189.887 745.053C151.296 745.053 120.026 713.736 120.026 675.087C120.026 636.437 151.296 605.12 189.887 605.12C228.479 605.12 259.749 636.437 259.749 675.087Z" fill="#FFE300"/>
<path d="M259.628 514.33C259.628 552.98 228.358 584.297 189.766 584.297C151.174 584.297 119.904 552.94 119.904 514.33C119.904 475.721 151.174 444.364 189.766 444.364C228.358 444.364 259.628 475.681 259.628 514.33V514.33Z" fill="#FFE300"/>
<path d="M189.483 424.31C228.066 424.31 259.345 392.985 259.345 354.344C259.345 315.702 228.066 284.377 189.483 284.377C150.899 284.377 119.621 315.702 119.621 354.344C119.621 392.985 150.899 424.31 189.483 424.31Z" fill="#FFE300"/>
<path d="M262.176 998.301C262.176 1004.78 261.286 1011.1 259.628 1017.06C221.683 1031.4 181.15 1040.48 138.958 1043.43C128.683 1031.24 122.493 1015.48 122.493 998.301C122.493 959.692 153.763 928.335 192.355 928.335C230.947 928.335 262.217 959.652 262.217 998.301H262.176Z" fill="#FFE300"/>
<path d="M104.411 833.777C104.411 872.427 73.1412 903.743 34.5494 903.743C-4.04244 903.743 -35.3123 872.386 -35.3123 833.777C-35.3123 795.168 -4.04244 763.811 34.5494 763.811C73.1412 763.811 104.411 795.127 104.411 833.777Z" fill="#FFE300"/>
<path d="M34.2662 743.716C72.8497 743.716 104.128 712.391 104.128 673.75C104.128 635.109 72.8497 603.784 34.2662 603.784C-4.31732 603.784 -35.5955 635.109 -35.5955 673.75C-35.5955 712.391 -4.31732 743.716 34.2662 743.716Z" fill="#FFE300"/>
<path d="M104.006 512.993C104.006 551.643 72.7366 582.96 34.1448 582.96C-4.44698 582.96 -35.7169 551.603 -35.7169 512.993C-35.7169 474.384 -4.44698 443.027 34.1448 443.027C72.7366 443.027 104.006 474.384 104.006 512.993V512.993Z" fill="#FFE300"/>
<path d="M-36 352.966C-36 314.357 -4.68967 283 33.8617 283C72.413 283 103.723 314.357 103.723 352.966C103.723 391.575 72.4535 422.933 33.8617 422.933C-4.73012 422.933 -36 391.616 -36 352.966Z" fill="#FFE300"/>
<path d="M106.555 996.964C106.555 1015.07 99.6781 1031.6 88.3918 1044C47.6155 1042.1 8.37651 1034.44 -28.5972 1021.88C-31.5502 1014.14 -33.1683 1005.71 -33.1683 996.964C-33.1683 958.314 -1.89847 926.998 36.6933 926.998C75.2851 926.998 106.555 958.314 106.555 996.964V996.964Z" fill="#FFE300"/>
</g>
<path d="M177.5 755C99.1106 755 35.4193 692.111 34 614L321 614C319.581 692.111 255.889 755 177.5 755Z" fill="#92C83E"/>
<path d="M359.707 142.821V621.856H0.625366V142.821H37.8468C38.8196 219.859 101.589 282.007 178.881 282.007C256.173 282.007 318.919 219.859 319.891 142.821H359.73H359.707Z" fill="#D71920"/>
<path d="M362 468.013H0V293.562" fill="#903B93"/>
<path d="M178.5 482C256.343 482 319.591 544.443 321 622H36C37.4094 544.443 100.657 482 178.5 482Z" fill="#0096DB"/>
<path d="M319.868 142.821C318.895 219.859 256.126 282.007 178.857 282.007C101.589 282.007 38.8196 219.859 37.8468 142.821H319.868Z" fill="#F7941D"/>
<path d="M319.891 140.992C319.891 141.594 319.891 142.219 319.868 142.821H37.8468C37.8237 142.219 37.8237 141.594 37.8237 140.992C37.8237 63.1442 100.963 0 178.881 0C256.798 0 319.915 63.1442 319.915 140.992H319.891Z" fill="#FFE300"/>
<defs>
<clipPath id="clip0_54_3">
<rect width="572" height="761" fill="white" transform="translate(-36 283)"/>
</clipPath>
</defs>
</svg>
